{
    "asset" : {
        "generator" : "Khronos glTF Blender I/O v1.8.19",
        "version" : "2.0"
    },
    "scene" : 0,
    "scenes" : [
        {
            "name" : "Scene",
            "nodes" : [
                0
            ]
        }
    ],
    "nodes" : [
        {
            "mesh" : 0,
            "name" : "asset",
            "rotation" : [
                0.7071068286895752,
                0,
                0,
                0.7071067094802856
            ]
        }
    ],
    "meshes" : [
        {
            "name" : "Asset 1.001",
            "primitives" : [
                {
                    "attributes" : {
                        "POSITION" : 0,
                        "NORMAL" : 1,
                        "TEXCOORD_0" : 2
                    },
                    "indices" : 3
                }
            ]
        }
    ],
    "accessors" : [
        {
            "bufferView" : 0,
            "componentType" : 5126,
            "count" : 5729,
            "max" : [
                145.0800018310547,
                36.5281982421875,
                43.919898986816406
            ],
            "min" : [
                -145.0800018310547,
                -36.5281982421875,
                -43.919898986816406
            ],
            "type" : "VEC3"
        },
        {
            "bufferView" : 1,
            "componentType" : 5126,
            "count" : 5729,
            "type" : "VEC3"
        },
        {
            "bufferView" : 2,
            "componentType" : 5126,
            "count" : 5729,
            "type" : "VEC2"
        },
        {
            "bufferView" : 3,
            "componentType" : 5123,
            "count" : 22464,
            "type" : "SCALAR"
        }
    ],
    "bufferViews" : [
        {
            "buffer" : 0,
            "byteLength" : 68748,
            "byteOffset" : 0
        },
        {
            "buffer" : 0,
            "byteLength" : 68748,
            "byteOffset" : 68748
        },
        {
            "buffer" : 0,
            "byteLength" : 45832,
            "byteOffset" : 137496
        },
        {
            "buffer" : 0,
            "byteLength" : 44928,
            "byteOffset" : 183328
        }
    ],
    "buffers" : [
        {
            "byteLength" : 228256,
            "uri" : "data:application/octet-stream;base64,"
        }
    ]
}
